<svg version="1.1" id="Layer_1" xmlns="http://www.w3.org/2000/svg" xmlns:xlink="http://www.w3.org/1999/xlink" x="0px" y="0px"
	 width="100%" viewBox="0 0 803 781" enable-background="new 0 0 803 781" xml:space="preserve">
<path fill="#C30000" opacity="1.000000" stroke="none" 
	d="
M553.000000,782.000000 
	C368.666656,782.000000 184.833328,782.000000 1.000000,782.000000 
	C1.000000,521.666687 1.000000,261.333344 1.000000,1.000000 
	C268.666656,1.000000 536.333313,1.000000 804.000000,1.000000 
	C804.000000,261.333344 804.000000,521.666687 804.000000,782.000000 
	C720.500000,782.000000 637.000000,782.000000 553.000000,782.000000 
M309.985779,500.440033 
	C316.361847,496.557220 322.534454,492.280609 329.150482,488.862183 
	C353.129761,476.472473 378.836273,468.642761 404.581818,460.984589 
	C450.324646,447.377960 486.928589,422.054932 509.602692,378.981873 
	C513.947815,370.727600 517.641479,362.130463 521.635742,353.691528 
	C521.240906,353.435120 520.846069,353.178680 520.451172,352.922272 
	C519.789551,353.262695 519.097656,353.555145 518.470764,353.950562 
	C500.029114,365.582275 479.852783,372.889923 458.807251,378.131073 
	C436.492340,383.688354 413.875397,387.024963 390.914581,388.264038 
	C369.045441,389.444183 347.189575,390.870270 325.444489,392.181213 
	C326.092957,391.503693 327.004303,390.356445 328.106293,389.437927 
	C331.043854,386.989349 333.914825,384.419098 337.074341,382.285309 
	C359.550079,367.105896 384.352936,357.094971 410.099030,348.960602 
	C438.496552,339.988464 467.131622,331.507202 494.855865,320.734314 
	C526.256653,308.532837 549.657715,287.198730 559.772949,253.690063 
	C564.831055,236.934158 567.381775,219.859009 566.917725,201.549728 
	C565.683716,202.442368 565.088440,202.918655 564.450134,203.327881 
	C554.688477,209.586060 545.351929,216.683594 535.064148,221.907318 
	C514.752869,232.220505 492.776672,238.162140 470.850708,244.044861 
	C441.090210,252.029617 411.087830,259.222351 381.630676,268.202881 
	C335.670380,282.214661 297.401733,307.806915 269.178528,347.352386 
	C240.276581,387.848816 226.456406,433.850769 220.027100,482.492096 
	C215.483307,516.868530 216.450348,551.343811 220.269455,585.653992 
	C222.985275,610.052429 227.310394,634.279114 231.229095,658.532043 
	C232.496307,666.374756 234.753677,674.057434 236.558105,681.813354 
	C242.658127,664.872742 247.845413,647.976990 252.979706,631.065125 
	C263.376831,596.817993 273.357758,562.421936 289.025726,530.058899 
	C294.258270,519.250854 299.811127,508.645813 309.985779,500.440033 
M320.071838,264.541870 
	C346.413605,247.214340 375.761047,236.990036 405.653076,227.874649 
	C432.888733,219.569290 460.262482,211.532791 486.963074,201.712921 
	C510.025726,193.231003 530.142212,179.585876 544.605469,158.971573 
	C556.846375,141.524887 562.133057,121.560715 564.948364,100.828613 
	C566.183594,91.732033 566.673279,82.534225 567.580261,72.511978 
	C566.016724,73.437447 565.557861,73.604530 565.236450,73.914215 
	C547.824524,90.689865 526.977478,101.903313 504.808655,110.827332 
	C471.338654,124.300621 436.345123,132.638901 401.362000,140.970093 
	C372.939453,147.738846 344.903992,155.600662 318.668243,168.901947 
	C284.415649,186.267715 261.239075,212.846375 250.488510,249.938477 
	C243.865707,272.788727 241.089066,296.173615 241.164261,319.890747 
	C241.191895,328.606262 242.126083,337.318909 242.646759,346.032867 
	C262.348907,312.937958 287.692261,285.924927 320.071838,264.541870 
z"/>
<path fill="#FFFEFE" opacity="1.000000" stroke="none" 
	d="
M309.720886,500.680786 
	C299.811127,508.645813 294.258270,519.250854 289.025726,530.058899 
	C273.357758,562.421936 263.376831,596.817993 252.979706,631.065125 
	C247.845413,647.976990 242.658127,664.872742 236.558105,681.813354 
	C234.753677,674.057434 232.496307,666.374756 231.229095,658.532043 
	C227.310394,634.279114 222.985275,610.052429 220.269455,585.653992 
	C216.450348,551.343811 215.483307,516.868530 220.027100,482.492096 
	C226.456406,433.850769 240.276581,387.848816 269.178528,347.352386 
	C297.401733,307.806915 335.670380,282.214661 381.630676,268.202881 
	C411.087830,259.222351 441.090210,252.029617 470.850708,244.044861 
	C492.776672,238.162140 514.752869,232.220505 535.064148,221.907318 
	C545.351929,216.683594 554.688477,209.586060 564.450134,203.327881 
	C565.088440,202.918655 565.683716,202.442368 566.917725,201.549728 
	C567.381775,219.859009 564.831055,236.934158 559.772949,253.690063 
	C549.657715,287.198730 526.256653,308.532837 494.855865,320.734314 
	C467.131622,331.507202 438.496552,339.988464 410.099030,348.960602 
	C384.352936,357.094971 359.550079,367.105896 337.074341,382.285309 
	C333.914825,384.419098 331.043854,386.989349 328.106293,389.437927 
	C327.004303,390.356445 326.092957,391.503693 325.444489,392.181213 
	C347.189575,390.870270 369.045441,389.444183 390.914581,388.264038 
	C413.875397,387.024963 436.492340,383.688354 458.807251,378.131073 
	C479.852783,372.889923 500.029114,365.582275 518.470764,353.950562 
	C519.097656,353.555145 519.789551,353.262695 520.451172,352.922272 
	C520.846069,353.178680 521.240906,353.435120 521.635742,353.691528 
	C517.641479,362.130463 513.947815,370.727600 509.602692,378.981873 
	C486.928589,422.054932 450.324646,447.377960 404.581818,460.984589 
	C378.836273,468.642761 353.129761,476.472473 329.150482,488.862183 
	C322.534454,492.280609 316.361847,496.557220 309.720886,500.680786 
z"/>
<path fill="#FFFEFE" opacity="1.000000" stroke="none" 
	d="
M319.776794,264.752686 
	C287.692261,285.924927 262.348907,312.937958 242.646759,346.032867 
	C242.126083,337.318909 241.191895,328.606262 241.164261,319.890747 
	C241.089066,296.173615 243.865707,272.788727 250.488510,249.938477 
	C261.239075,212.846375 284.415649,186.267715 318.668243,168.901947 
	C344.903992,155.600662 372.939453,147.738846 401.362000,140.970093 
	C436.345123,132.638901 471.338654,124.300621 504.808655,110.827332 
	C526.977478,101.903313 547.824524,90.689865 565.236450,73.914215 
	C565.557861,73.604530 566.016724,73.437447 567.580261,72.511978 
	C566.673279,82.534225 566.183594,91.732033 564.948364,100.828613 
	C562.133057,121.560715 556.846375,141.524887 544.605469,158.971573 
	C530.142212,179.585876 510.025726,193.231003 486.963074,201.712921 
	C460.262482,211.532791 432.888733,219.569290 405.653076,227.874649 
	C375.761047,236.990036 346.413605,247.214340 319.776794,264.752686 
z"/>
</svg>